<svg width="817" height="100" viewBox="0 0 817 817" fill="none" xmlns="http://www.w3.org/2000/svg">
    <mask id="mask0_101_1238" style="mask-type:luminance" maskUnits="userSpaceOnUse" x="13" y="279" width="197" height="201">
        <path d="M13.6152 279.089H209.66V479.765H13.6152V279.089Z" fill="white"/>
    </mask>
    <g mask="url(#mask0_101_1238)">
        <path d="M208.002 370.501H115.998V397.787H181.253C178.019 435.979 146.179 452.373 116.109 452.373C114.922 452.378 113.735 452.354 112.548 452.301C111.363 452.246 110.178 452.163 108.997 452.052C107.814 451.939 106.636 451.797 105.462 451.627C104.288 451.454 103.118 451.255 101.952 451.027C100.788 450.797 99.6289 450.54 98.4781 450.253C97.3252 449.968 96.1807 449.653 95.0448 449.308C93.9088 448.966 92.7814 448.596 91.6625 448.196C90.5457 447.796 89.4374 447.37 88.3419 446.915C87.2442 446.462 86.1594 445.981 85.0872 445.473C84.0151 444.964 82.9536 444.43 81.9092 443.869C80.8626 443.309 79.8309 442.722 78.814 442.112C77.7951 441.499 76.7953 440.863 75.8083 440.201C74.8234 439.54 73.8555 438.855 72.9046 438.144C71.9516 437.436 71.0199 436.702 70.1031 435.947C69.1884 435.192 68.2928 434.413 67.4164 433.613C66.54 432.814 65.6848 431.99 64.8488 431.148C64.0128 430.306 63.1981 429.442 62.4068 428.559C61.6133 427.676 60.8433 426.774 60.0945 425.853C59.3478 424.932 58.6224 423.992 57.9205 423.035C57.2206 422.078 56.542 421.103 55.8911 420.112C55.238 419.121 54.6084 418.115 54.0064 417.093C53.4044 416.07 52.8258 415.034 52.2748 413.983C51.7239 412.933 51.1984 411.869 50.7007 410.793C50.2029 409.714 49.7306 408.627 49.2861 407.527C48.8415 406.425 48.4245 405.315 48.0353 404.194C47.646 403.073 47.2843 401.943 46.9525 400.805C46.6185 399.667 46.3143 398.521 46.0378 397.366C45.7612 396.213 45.5145 395.051 45.2954 393.885C45.0784 392.72 44.887 391.548 44.7274 390.373C44.5679 389.197 44.436 388.019 44.3339 386.836C44.2318 385.655 44.1594 384.47 44.1169 383.285C44.0744 382.098 44.0616 380.914 44.0765 379.727C44.0765 338.42 76.0721 306.618 116.196 306.618C147.149 306.618 165.388 326.338 165.388 326.338L184.495 306.55C184.495 306.55 159.949 279.251 115.196 279.251C58.2076 279.251 14.123 327.322 14.123 379.242C14.123 430.118 55.5911 479.732 116.636 479.732C170.334 479.732 209.64 442.965 209.64 388.599C209.64 377.127 207.973 370.501 207.973 370.501H208.002Z" fill="#4885ED"/>
    </g>
    <path d="M283.377 350.736C245.619 350.736 218.562 380.241 218.562 414.636C218.562 449.552 244.798 479.599 283.817 479.599C319.136 479.599 348.066 452.622 348.066 415.385C348.066 372.785 314.409 350.73 283.377 350.73V350.736ZM283.745 376.046C302.307 376.046 319.899 391.052 319.899 415.223C319.899 438.874 302.379 454.311 283.656 454.311C263.079 454.311 246.912 437.844 246.912 415.032C246.912 392.704 262.932 376.046 283.802 376.046H283.745Z" fill="#DB3236"/>
    <path d="M424.33 350.736C386.572 350.736 359.514 380.241 359.514 414.636C359.514 449.552 385.749 479.599 424.771 479.599C460.087 479.599 489.019 452.622 489.019 415.385C489.019 372.785 455.362 350.73 424.33 350.73V350.736ZM424.696 376.046C443.26 376.046 460.852 391.052 460.852 415.223C460.852 438.874 443.333 454.311 424.609 454.311C404.032 454.311 387.865 437.844 387.865 415.032C387.865 392.704 403.885 376.046 424.756 376.046H424.696Z" fill="#F4C20D"/>
    <mask id="mask1_101_1238" style="mask-type:luminance" maskUnits="userSpaceOnUse" x="500" y="350" width="125" height="188">
        <path d="M500.461 350.702H624.623V537.623H500.461V350.702Z" fill="white"/>
    </mask>
    <g mask="url(#mask1_101_1238)">
        <path d="M562.579 350.811C527.922 350.811 500.689 381.143 500.689 415.193C500.689 453.975 532.266 479.695 561.977 479.695C580.348 479.695 590.122 472.401 597.251 464.036V476.742C597.251 498.974 583.743 512.29 563.357 512.29C543.664 512.29 533.787 497.653 530.29 489.352L505.51 499.635C514.299 518.219 531.994 537.585 563.564 537.585C598.101 537.585 624.277 515.898 624.277 470.403V354.68H597.353V365.595C589.048 356.635 577.674 350.811 562.594 350.811H562.579ZM565.078 376.076C582.066 376.076 599.514 390.575 599.514 415.334C599.514 440.503 582.096 454.37 564.702 454.37C546.229 454.37 529.039 439.386 529.039 415.567C529.039 390.83 546.897 376.067 565.078 376.067V376.076Z" fill="#4885ED"/>
    </g>
    <path d="M744.617 350.656C711.93 350.656 684.482 376.657 684.482 414.996C684.482 455.583 715.076 479.651 747.682 479.651C774.96 479.651 791.773 464.741 801.692 451.373L779.406 436.553C773.622 445.513 763.951 454.29 747.821 454.29C729.699 454.29 721.366 444.375 716.199 434.753L802.641 398.91L798.231 388.408C789.884 367.842 770.403 350.656 744.623 350.656H744.617ZM745.742 375.438C757.521 375.438 765.993 381.694 769.595 389.201L711.864 413.313C709.367 394.642 727.076 375.438 745.668 375.438H745.742Z" fill="#DB3236"/>
    <path d="M643.207 475.832H671.603V285.92H643.207V475.832Z" fill="#3CBA54"/>
</svg>
